# xmcd CD database file
#
# Track frame offsets:
#	150
#	24721
#	42915
#	60201
#	78708
#	96702
#	115548
#	134180
#	149290
#	175232
#
# Disc length: 2537 seconds
#
# Revision: 0
# Processed by: cddbd v1.5PL3 Copyright (c) Steve Scherf et al.
# Submitted via: CDex 1.51
#
DISCID=8e09e70a
DTITLE=Fresh Air - Forest
DYEAR=1991
DGENRE=New Age
TTITLE0=Indigo Blue
TTITLE1=Chinese Title)
TTITLE2=Chinese Title)
TTITLE3=Chinese Title)
TTITLE4=Chinese Title)
TTITLE5=Chinese Title)
TTITLE6=Chinese Title)
TTITLE7=Chinese Title)
TTITLE8=Chinese Title)
TTITLE9=Fresh Air
EXTD=YEAR: 1991
EXTT0=
EXTT1=
EXTT2=
EXTT3=
EXTT4=
EXTT5=
EXTT6=
EXTT7=
EXTT8=
EXTT9=
PLAYORDER=
